# xmcd
#
# Track frame offsets:
#	150
#	18580
#	46310
#	63243
#	84575
#	103238
#	123930
#	144720
#	165150
#	185253
#	207295
#	227148
#	246613
#
# Disc length: 3479 seconds
#
# Revision: 1
# Processed by: cddbd v1.5.1PL0 Copyright (c) Steve Scherf et al.
# Submitted via: CDex 1.50Beta5
#
DISCID=b20d950d
DTITLE=猿岩石 - 通信簿〜SARUGANSEKI SINGLES〜
DYEAR=1998
DGENRE=Pop
TTITLE0=白い雲のように
TTITLE1=どうして僕は旅をしているのだろう
TTITLE2=ツキ
TTITLE3=コンビニ
TTITLE4=バイトの最後の日
TTITLE5=君の青空
TTITLE6=声が聴こえる
TTITLE7=オエオエオ!
TTITLE8=Christmas
TTITLE9=少年の羽根
TTITLE10=君に会いに行こう
TTITLE11=昨日までの君を抱きしめて
TTITLE12=上を向いて歩こう
EXTD=
EXTT0=
EXTT1=
EXTT2=
EXTT3=
EXTT4=
EXTT5=
EXTT6=
EXTT7=
EXTT8=
EXTT9=
EXTT10=
EXTT11=
EXTT12=
PLAYORDER=
